<svg version="1.1" id="Layer_1" xmlns="http://www.w3.org/2000/svg" xmlns:xlink="http://www.w3.org/1999/xlink" x="0px" y="0px"
	 width="100%" viewBox="0 0 1024 1024" enable-background="new 0 0 1024 1024" xml:space="preserve">
<path opacity="1.000000" stroke="none" 
	d="
M693.155273,515.098755 
	C657.603455,578.778442 618.267456,639.583679 574.892395,697.746033 
	C555.577881,723.645142 534.613403,748.250549 514.144775,773.238647 
	C510.594604,777.572693 507.273987,777.631836 503.153412,773.675720 
	C498.673492,769.374695 495.485931,764.044495 491.713654,759.178040 
	C472.428619,734.299011 452.720520,709.737488 433.879913,684.527100 
	C410.843323,653.702209 389.364288,621.778748 368.563232,589.384216 
	C345.852142,554.015137 324.932343,517.677673 307.076721,479.623535 
	C290.962982,445.281677 281.534912,409.245758 281.233887,371.140137 
	C280.929901,332.652954 289.502441,296.206085 307.028198,261.870514 
	C334.999969,207.069489 377.658539,168.926682 436.031189,149.170822 
	C455.073730,142.726013 474.743408,138.721313 495.093140,137.460144 
	C551.362915,133.972885 601.439575,150.638184 646.175903,183.571121 
	C670.286804,201.320526 688.563110,224.835587 703.763306,250.664093 
	C718.793396,276.203674 728.846619,303.550873 733.661560,332.743896 
	C738.704285,363.318298 737.445801,393.663696 730.205261,423.888977 
	C722.489319,456.098816 709.026184,485.862579 693.155273,515.098755 
M306.821594,387.818726 
	C307.878052,399.451263 310.361481,410.843842 313.057129,422.161621 
	C318.922394,446.787445 329.168884,469.743103 340.849884,492.058990 
	C351.970123,513.303467 364.000549,534.040588 376.553467,554.481140 
	C395.907257,585.995789 416.526520,616.639160 437.885651,646.837036 
	C459.634827,677.586243 482.849121,707.184814 505.883514,736.941345 
	C508.249054,739.997192 509.953308,739.713379 512.000305,736.899597 
	C513.762390,734.477539 515.552063,732.073792 517.390137,729.709045 
	C529.960083,713.537659 542.627441,697.441406 555.108643,681.201965 
	C576.744446,653.051331 596.709534,623.724365 615.679443,593.734497 
	C635.530396,562.351685 654.891968,530.657532 672.933777,498.191406 
	C689.175598,468.964355 702.408752,438.583954 708.300781,405.332703 
	C713.771851,374.456970 712.715698,343.837952 704.090942,313.842804 
	C690.282715,265.820892 663.418701,226.568436 622.027100,197.993484 
	C574.160400,164.948425 521.249939,154.033722 464.611145,166.321121 
	C397.730072,180.830521 352.303589,222.727524 323.862915,283.660370 
	C308.651520,316.250061 303.479736,351.022705 306.821594,387.818726 
z"/>
<path fill="#132e3f" opacity="1.000000" stroke="none" 
	d="
M672.591309,440.513000 
	C664.683289,455.737946 654.630371,468.874695 643.003479,480.970947 
	C611.826294,513.406799 573.617676,531.697205 529.294067,537.002075 
	C479.161713,543.002075 434.519775,528.974731 394.752411,498.248474 
	C374.042572,482.246979 356.417938,463.624237 344.572174,440.114502 
	C330.852936,412.886414 323.302856,384.097076 324.985840,353.394165 
	C326.097382,333.116852 331.032898,313.595215 338.671387,294.817993 
	C348.394501,270.916199 362.270599,249.634552 380.868347,231.717255 
	C405.503174,207.983749 434.333618,191.437134 468.032684,184.634018 
	C544.587158,169.179276 606.679382,193.901672 655.125305,254.047287 
	C676.305420,280.342407 687.936829,310.852844 691.342285,344.560883 
	C694.757812,378.368195 688.188965,410.100006 672.591309,440.513000 
M612.687317,279.342590 
	C612.902893,274.608093 611.904724,270.007294 610.525330,265.577026 
	C605.781982,250.342712 596.578064,239.478088 580.141907,236.514877 
	C556.532349,232.258347 532.764648,228.907196 508.758820,228.532333 
	C485.724426,228.172623 462.945770,231.434296 440.345734,235.689804 
	C425.303528,238.522217 413.940399,246.403290 407.926300,260.922607 
	C405.118469,267.701294 404.965790,274.884399 405.457214,282.057129 
	C405.667633,285.127960 404.638062,286.348755 401.598206,286.275452 
	C398.102539,286.191132 394.586334,286.131561 391.105988,286.404694 
	C382.537628,287.077118 378.268707,291.819794 378.349487,300.357605 
	C378.368347,302.351135 378.506927,304.349121 378.703186,306.333893 
	C378.916962,308.495789 378.591675,310.062561 375.857971,309.641022 
	C372.695953,309.153381 372.249878,311.129578 372.255157,313.579895 
	C372.276337,323.410950 372.193512,333.243042 372.315094,343.072693 
	C372.373566,347.800110 374.955200,350.270477 379.769470,350.671631 
	C381.428711,350.809906 383.097565,350.902618 384.761780,350.898773 
	C390.211823,350.886139 393.364227,348.303314 393.526886,342.852051 
	C393.815002,333.195679 393.668152,323.526001 393.670532,313.861877 
	C393.670868,312.552307 393.777863,310.627930 392.171448,310.554443 
	C385.066925,310.229584 387.099640,305.011078 386.875641,301.041382 
	C386.668579,297.372192 388.205505,295.425598 392.204773,295.727356 
	C395.186798,295.952362 398.208038,295.925537 401.195374,295.742676 
	C404.572784,295.535980 406.123505,296.832123 406.101471,300.296906 
	C405.993378,317.291992 406.383789,334.301605 405.813507,351.279755 
	C404.923706,377.769470 405.243835,404.254608 405.480408,430.736328 
	C405.598389,443.942413 415.470978,452.706146 428.715668,452.698547 
	C465.871918,452.677246 503.028564,452.767029 540.184265,452.619904 
	C557.171875,452.552643 574.164673,452.504913 591.150574,452.374969 
	C603.866394,452.277679 613.214111,439.342896 613.010315,428.041809 
	C612.439453,396.392883 612.808899,364.726776 612.837036,333.067444 
	C612.846252,322.737091 612.987549,312.406769 612.984497,302.076447 
	C612.983337,298.266418 614.310547,296.566345 618.437683,297.360535 
	C620.664856,297.789154 623.085510,297.460632 625.386475,297.194183 
	C628.214050,296.866791 631.030701,295.797638 631.927002,300.104675 
	C633.313232,306.765533 632.361694,310.238342 628.225891,311.204102 
	C626.222290,311.671967 625.346436,312.721344 625.347412,314.624329 
	C625.352356,324.287842 625.094360,333.964478 625.526550,343.609711 
	C625.764038,348.907074 631.063171,352.069427 637.448792,351.661194 
	C642.544373,351.335449 645.001282,348.429138 645.001099,342.535858 
	C645.000793,333.871552 644.941895,325.207123 644.865967,316.543091 
	C644.848694,314.575043 645.185059,312.273865 642.988220,311.223114 
	C640.132935,309.857391 639.969788,307.759308 640.375244,305.013062 
	C640.761658,302.396240 640.696594,299.696167 640.651794,297.035736 
	C640.560852,291.626984 636.772522,287.611389 631.345520,287.339142 
	C627.355896,287.138947 623.349365,287.283813 619.350586,287.251923 
	C612.526306,287.197479 612.526367,287.189911 612.687317,279.342590 
M423.871979,468.838470 
	C425.708954,475.452393 428.821136,478.791382 433.906128,478.991241 
	C438.557648,479.174103 443.239075,479.146729 447.882599,478.838837 
	C453.286896,478.480438 457.620789,473.713165 457.722534,468.696167 
	C457.787750,465.477936 456.512787,463.509888 453.188141,463.417603 
	C444.376404,463.172943 435.560944,462.810333 426.785858,464.180939 
	C424.368774,464.558472 423.076660,465.517578 423.871979,468.838470 
M563.127747,475.335632 
	C567.158875,478.782776 583.728149,480.405731 588.363098,477.807404 
	C592.451111,475.515656 595.144043,470.201141 593.736633,466.449585 
	C592.172607,462.280396 588.217529,463.448730 585.115967,463.358093 
	C578.466370,463.163879 571.803467,463.131775 565.168640,463.979156 
	C560.175903,464.616852 559.105408,466.029358 560.603271,470.798218 
	C561.042175,472.195526 561.936768,473.449707 563.127747,475.335632 
z"/>
<path opacity="1.000000" stroke="none" 
	d="
M543.333008,583.840698 
	C553.057800,601.429077 549.172180,617.687622 539.226379,633.093811 
	C530.837219,646.088684 521.777954,658.651733 512.978821,671.380676 
	C509.819763,675.950562 508.044128,676.178833 504.741180,671.572754 
	C494.469513,657.248596 483.669098,643.261536 475.198975,627.729004 
	C471.572601,621.078979 469.388519,613.897217 469.033600,606.315002 
	C468.131195,587.038696 478.138550,573.619629 496.959473,566.832947 
	C512.650635,561.174805 533.849670,568.196960 543.333008,583.840698 
M491.224182,600.806274 
	C489.052246,606.498535 491.205811,611.505798 494.627533,615.624878 
	C499.128601,621.043213 504.550903,625.871460 512.483398,624.194763 
	C521.282959,622.334839 527.755127,613.906982 527.756226,605.040649 
	C527.757141,597.541077 520.824707,589.213867 512.810486,587.087952 
	C504.478638,584.877747 495.973572,590.037842 491.224182,600.806274 
z"/>
<path opacity="1.000000" stroke="none" 
	d="
M598.476257,345.233185 
	C598.452576,349.002411 598.446594,352.334015 598.374756,355.664185 
	C598.207764,363.407104 594.438171,367.218170 586.577332,367.268677 
	C571.252930,367.367188 555.926331,367.454346 540.603210,367.299316 
	C532.140442,367.213715 523.716980,367.968292 515.445801,368.497131 
	C513.951843,365.830078 514.705566,363.457977 514.700439,361.198090 
	C514.651062,339.376831 514.767944,317.554871 514.632690,295.734375 
	C514.606628,291.524292 515.454407,290.204163 520.217102,290.290955 
	C544.679688,290.736664 569.161133,291.497589 593.614197,289.967133 
	C597.475525,289.725433 599.170105,290.824585 599.100342,294.848022 
	C598.811829,311.495667 598.663696,328.145721 598.476257,345.233185 
z"/>
<path opacity="1.000000" stroke="none" 
	d="
M440.999573,290.851746 
	C460.817078,290.673096 480.136200,290.592194 499.451111,290.263733 
	C503.157654,290.200714 503.080353,292.420990 503.106049,294.754730 
	C503.221588,305.248260 503.149902,315.744507 503.333282,326.236481 
	C503.548584,338.555481 502.771210,350.888306 503.791046,363.192657 
	C504.057770,366.410858 503.004700,367.514496 499.587372,367.485870 
	C479.931671,367.321381 460.273804,367.388519 440.616852,367.432892 
	C437.629486,367.439636 434.639221,367.689392 431.656494,367.910248 
	C425.196381,368.388489 420.196289,363.883636 419.607727,357.424347 
	C418.819427,348.773590 419.285889,340.158844 419.478516,331.505981 
	C419.737610,319.865234 419.233368,308.200562 418.809631,296.555145 
	C418.652771,292.244812 420.016479,290.530334 424.515320,290.825897 
	C429.821381,291.174469 435.169708,290.879333 440.999573,290.851746 
z"/>
<path opacity="1.000000" stroke="none" 
	d="
M462.398071,249.767990 
	C466.370544,245.113297 471.460602,246.186752 476.177460,246.152451 
	C498.984283,245.986496 521.791870,245.921509 544.599243,245.838776 
	C554.585266,245.802551 558.579407,250.204742 557.586853,260.054565 
	C557.453491,261.378174 557.421143,262.712646 557.363037,264.043030 
	C557.098877,270.088593 553.351440,274.029724 547.424622,274.308502 
	C522.790222,275.467194 498.137421,275.196198 473.489838,275.105164 
	C465.334259,275.075073 460.901733,270.516144 460.875580,262.245819 
	C460.862701,258.179840 459.542023,253.892807 462.398071,249.767990 
z"/>
<path opacity="1.000000" stroke="none" 
	d="
M542.603882,424.746429 
	C546.862305,425.112274 549.737610,426.811646 549.147034,430.994781 
	C548.605713,434.828522 545.875916,437.189301 541.855774,437.195160 
	C520.356506,437.226501 498.857086,437.156219 477.357697,437.124176 
	C475.096313,437.120789 473.081818,436.399841 471.391296,434.925323 
	C469.698364,433.448700 468.308990,431.688110 469.078278,429.279388 
	C469.781525,427.077545 471.420105,425.554901 473.731934,425.212402 
	C475.860779,424.897003 478.045410,424.925659 480.207214,424.870758 
	C500.853943,424.346161 521.505798,426.368256 542.603882,424.746429 
z"/>
<path opacity="1.000000" stroke="none" 
	d="
M569.421631,422.779816 
	C562.746216,417.291748 560.195374,409.492645 562.796326,403.091003 
	C566.753967,393.349945 574.652161,390.009094 585.325012,393.747375 
	C594.301392,396.891479 597.825134,407.665802 593.505249,416.229858 
	C588.936218,425.287842 579.077759,428.092865 569.421631,422.779816 
z"/>
<path opacity="1.000000" stroke="none" 
	d="
M449.027100,421.154022 
	C442.953735,425.987000 436.833710,426.274841 430.654358,422.439301 
	C424.876282,418.852753 422.446930,413.319244 423.034119,406.679779 
	C423.587799,400.419189 426.716339,395.601349 432.724121,393.250885 
	C440.487518,390.213654 450.291595,393.416626 454.404846,400.067047 
	C458.401825,406.529449 456.511414,414.301208 449.027100,421.154022 
z"/>
<path opacity="1.000000" stroke="none" 
	d="
M545.401184,388.598694 
	C548.210632,389.735352 550.552368,391.326019 549.642151,394.203552 
	C548.621582,397.429840 545.917419,399.166412 542.332581,399.174927 
	C532.855591,399.197510 523.378601,399.274536 513.901611,399.284119 
	C502.594238,399.295563 491.286713,399.277100 479.979492,399.224304 
	C478.329224,399.216583 476.620941,399.169647 475.043243,398.750488 
	C471.972504,397.934723 469.129120,396.242340 469.559204,392.690155 
	C470.026703,388.829254 473.263245,387.933380 476.715179,388.100708 
	C499.477631,389.204010 522.251038,388.462341 545.401184,388.598694 
z"/>
<path opacity="1.000000" stroke="none" 
	d="
M488.012360,417.171570 
	C483.850342,417.202148 480.165527,417.471191 476.526703,417.175293 
	C472.972595,416.886292 469.599365,415.267212 470.007843,411.148804 
	C470.384338,407.352753 473.572540,405.471466 477.290314,405.787964 
	C498.408997,407.585846 519.558960,406.303009 540.690369,406.631226 
	C542.014954,406.651764 543.412842,406.653778 544.640808,407.067383 
	C546.393005,407.657532 548.052002,408.696442 548.448730,410.696045 
	C548.860718,412.772675 547.479919,414.072998 546.015198,415.278137 
	C543.648499,417.225433 540.883179,417.341888 537.992615,417.325317 
	C521.498535,417.230743 505.004059,417.209167 488.012360,417.171570 
z"/>
<path opacity="1.000000" stroke="none" 
	d="
M574.471375,254.707428 
	C575.485962,249.675323 576.815552,248.928619 580.828796,250.935333 
	C583.768005,252.405014 585.815125,254.510559 586.501282,258.009827 
	C587.572571,263.472565 587.504883,268.955322 587.124451,274.411621 
	C586.784851,279.282013 582.282715,282.172119 577.880432,280.885437 
	C575.921021,280.312714 574.567566,279.256653 574.711792,277.043213 
	C575.188354,269.731781 573.445435,262.454254 574.471375,254.707428 
z"/>
<path opacity="1.000000" stroke="none" 
	d="
M432.623962,257.916046 
	C435.466370,255.171814 438.138489,252.493179 441.842682,255.500671 
	C444.208435,257.421417 444.666534,267.319855 442.549744,269.186462 
	C440.368408,271.109955 437.564880,270.657654 434.975800,270.174622 
	C432.375519,269.689453 431.102600,267.787354 430.811523,265.256256 
	C430.523041,262.747711 430.593506,260.280640 432.623962,257.916046 
M436.414062,264.697266 
	C439.040253,266.379211 439.595520,264.563995 439.714874,262.577759 
	C439.828674,260.683685 439.245392,258.670959 437.008331,258.662231 
	C434.546021,258.652618 435.070160,260.755280 435.285675,262.335571 
	C435.370605,262.958282 435.738403,263.542389 436.414062,264.697266 
z"/>
</svg>