<?xml version="1.0" encoding="utf-8"?><!-- Uploaded to: SVG Repo, www.svgrepo.com, Generator: SVG Repo Mixer Tools -->
<svg width="800px" height="800px" viewBox="0 0 24 24" fill="none" xmlns="http://www.w3.org/2000/svg">
<path d="M8 14V15M16 14V15M5 11H19M6 18V19.5C6 19.7761 6.22386 20 6.5 20V20C6.77614 20 7 19.7761 7 19.5V18M17 18V19.5C17 19.7761 17.2239 20 17.5 20V20C17.7761 20 18 19.7761 18 19.5V18M19 6V6C19 4.34315 17.6569 3 16 3H8C6.34315 3 5 4.34315 5 6V6M19 6V16C19 17.1046 18.1046 18 17 18H7C5.89543 18 5 17.1046 5 16V6M19 6H5" stroke="#000000" stroke-width="2" stroke-linecap="round" stroke-linejoin="round"/>
</svg>