<svg xmlns="http://www.w3.org/2000/svg"  viewBox="0 0 80 80" width="80px" height="80px"><path d="M 69 10 C 68.74425 10 68.488469 10.097469 68.292969 10.292969 L 66.390625 12.195312 C 65.999625 12.586313 65.999625 13.218375 66.390625 13.609375 C 66.585625 13.804375 66.841656 13.902344 67.097656 13.902344 C 67.353656 13.902344 67.608687 13.805375 67.804688 13.609375 L 69.707031 11.707031 C 70.098031 11.316031 70.098031 10.683969 69.707031 10.292969 C 69.511531 10.097469 69.25575 10 69 10 z M 64.292969 14.707031 C 64.037219 14.707031 63.781437 14.8045 63.585938 15 L 60.78125 17.804688 C 60.39025 18.195687 60.39025 18.82775 60.78125 19.21875 C 60.97625 19.41375 61.232281 19.511719 61.488281 19.511719 C 61.744281 19.511719 62.000312 19.41375 62.195312 19.21875 L 65 16.414062 C 65.391 16.023062 65.391 15.391 65 15 C 64.8045 14.8045 64.548719 14.707031 64.292969 14.707031 z M 58.683594 20.316406 C 58.427844 20.316406 58.172062 20.413875 57.976562 20.609375 L 55.171875 23.414062 C 54.780875 23.805062 54.780875 24.437125 55.171875 24.828125 C 55.366875 25.023125 55.622906 25.121094 55.878906 25.121094 C 56.134906 25.121094 56.390937 25.023125 56.585938 24.828125 L 59.390625 22.023438 C 59.781625 21.632437 59.781625 21.000375 59.390625 20.609375 C 59.195125 20.413875 58.939344 20.316406 58.683594 20.316406 z M 53.072266 25.925781 C 52.816516 25.925781 52.560734 26.025203 52.365234 26.220703 L 49.560547 29.025391 C 49.169547 29.416391 49.169547 30.048453 49.560547 30.439453 C 49.755547 30.634453 50.011578 30.732422 50.267578 30.732422 C 50.522578 30.732422 50.778609 30.635453 50.974609 30.439453 L 53.779297 27.634766 C 54.170297 27.243766 54.170297 26.611703 53.779297 26.220703 C 53.583797 26.025203 53.328016 25.925781 53.072266 25.925781 z M 47.464844 31.535156 C 47.209094 31.535156 46.953312 31.632625 46.757812 31.828125 L 43.951172 34.634766 C 43.560172 35.025766 43.560172 35.657828 43.951172 36.048828 C 44.146172 36.243828 44.402203 36.341797 44.658203 36.341797 C 44.914203 36.341797 45.170234 36.243828 45.365234 36.048828 L 48.171875 33.242188 C 48.562875 32.851188 48.562875 32.219125 48.171875 31.828125 C 47.976375 31.632625 47.720594 31.535156 47.464844 31.535156 z M 41.853516 37.146484 C 41.597766 37.146484 41.341984 37.243953 41.146484 37.439453 L 38.341797 40.244141 C 37.950797 40.635141 37.950797 41.267203 38.341797 41.658203 C 38.536797 41.853203 38.792828 41.951172 39.048828 41.951172 C 39.304828 41.951172 39.560859 41.854203 39.755859 41.658203 L 42.560547 38.853516 C 42.951547 38.462516 42.951547 37.830453 42.560547 37.439453 C 42.365047 37.243953 42.109266 37.146484 41.853516 37.146484 z M 36.242188 42.755859 C 35.986437 42.755859 35.730656 42.855281 35.535156 43.050781 L 32.730469 45.855469 C 32.339469 46.246469 32.339469 46.878531 32.730469 47.269531 C 32.925469 47.464531 33.1815 47.5625 33.4375 47.5625 C 33.6935 47.5625 33.949531 47.464531 34.144531 47.269531 L 36.949219 44.464844 C 37.340219 44.073844 37.340219 43.441781 36.949219 43.050781 C 36.753719 42.855281 36.497938 42.755859 36.242188 42.755859 z M 30.634766 48.365234 C 30.379016 48.365234 30.123234 48.462703 29.927734 48.658203 L 27.121094 51.464844 C 26.730094 51.855844 26.730094 52.487906 27.121094 52.878906 C 27.316094 53.073906 27.572125 53.171875 27.828125 53.171875 C 28.084125 53.171875 28.340156 53.073906 28.535156 52.878906 L 31.341797 50.072266 C 31.732797 49.681266 31.732797 49.049203 31.341797 48.658203 C 31.146297 48.462703 30.890516 48.365234 30.634766 48.365234 z M 25.025391 53.974609 C 24.769641 53.974609 24.513859 54.072078 24.318359 54.267578 L 21.513672 57.072266 C 21.122672 57.463266 21.122672 58.095328 21.513672 58.486328 C 21.708672 58.681328 21.964703 58.779297 22.220703 58.779297 C 22.476703 58.779297 22.731734 58.682328 22.927734 58.486328 L 25.732422 55.681641 C 26.123422 55.290641 26.123422 54.658578 25.732422 54.267578 C 25.536922 54.072078 25.281141 53.974609 25.025391 53.974609 z M 19.414062 59.585938 C 19.158313 59.585938 18.902531 59.683406 18.707031 59.878906 L 15.902344 62.683594 C 15.511344 63.074594 15.511344 63.706656 15.902344 64.097656 C 16.097344 64.292656 16.353375 64.390625 16.609375 64.390625 C 16.865375 64.390625 17.121406 64.292656 17.316406 64.097656 L 20.121094 61.292969 C 20.512094 60.901969 20.512094 60.269906 20.121094 59.878906 C 19.925594 59.683406 19.669812 59.585938 19.414062 59.585938 z M 13.804688 65.195312 C 13.548938 65.195312 13.293156 65.292781 13.097656 65.488281 L 10.292969 68.292969 C 9.9019688 68.683969 9.9019687 69.316031 10.292969 69.707031 C 10.487969 69.902031 10.744 70 11 70 C 11.256 70 11.512031 69.902031 11.707031 69.707031 L 14.511719 66.902344 C 14.902719 66.511344 14.902719 65.879281 14.511719 65.488281 C 14.316219 65.292781 14.060437 65.195312 13.804688 65.195312 z"/></svg>